HIERARCHY
ROOT Hips
{
	OFFSET -0.001795 -0.223333 0.028219
	CHANNELS 6 Xposition Yposition Zposition Zrotation Yrotation Xrotation 
	JOINT LeftUpLeg
	{
		OFFSET 0.069520 -0.091406 -0.006815
		CHANNELS 3 Zrotation Yrotation Xrotation
		JOINT LeftLeg
		{
			OFFSET 0.034277 -0.375199 -0.004496
			CHANNELS 3 Zrotation Yrotation Xrotation
			JOINT LeftFoot
			{
				OFFSET -0.013596 -0.397961 -0.043693
				CHANNELS 3 Zrotation Yrotation Xrotation
				JOINT LeftToe
				{
					OFFSET 0.026358 -0.055791 0.119288
					CHANNELS 3 Zrotation Yrotation Xrotation
					End Site
					{
						OFFSET 0.000000 0.000000 0.000000
					}
				}
			}
		}
	}
	JOINT RightUpLeg
	{
		OFFSET -0.067670 -0.090522 -0.004320
		CHANNELS 3 Zrotation Yrotation Xrotation
		JOINT RightLeg
		{
			OFFSET -0.038290 -0.382569 -0.008850
			CHANNELS 3 Zrotation Yrotation Xrotation
			JOINT RightFoot
			{
				OFFSET 0.015774 -0.398415 -0.042312
				CHANNELS 3 Zrotation Yrotation Xrotation
				JOINT RightToe
				{
					OFFSET -0.025372 -0.048144 0.123348
					CHANNELS 3 Zrotation Yrotation Xrotation
					End Site
					{
						OFFSET 0.000000 0.000000 0.000000
					}
				}
			}
		}
	}
	JOINT Spine
	{
		OFFSET -0.002533 0.108963 -0.026696
		CHANNELS 3 Zrotation Yrotation Xrotation
		JOINT Spine1
		{
			OFFSET 0.005487 0.135180 0.001092
			CHANNELS 3 Zrotation Yrotation Xrotation
			JOINT Spine2
			{
				OFFSET 0.001457 0.052922 0.025425
				CHANNELS 3 Zrotation Yrotation Xrotation
				JOINT Neck
				{
					OFFSET -0.002778 0.213870 -0.042857
					CHANNELS 3 Zrotation Yrotation Xrotation
					JOINT Head
					{
						OFFSET 0.005152 0.064970 0.051349
						CHANNELS 3 Zrotation Yrotation Xrotation
						End Site
						{
							OFFSET 0.000000 0.000000 0.000000
						}
					}
				}
				JOINT LeftShoulder
				{
					OFFSET 0.078845 0.121749 -0.034090
					CHANNELS 3 Zrotation Yrotation Xrotation
					JOINT LeftArm
					{
						OFFSET 0.090977 0.030469 -0.008868
						CHANNELS 3 Zrotation Yrotation Xrotation
						JOINT LeftForeArm
						{
							OFFSET 0.259612 -0.012772 -0.027456
							CHANNELS 3 Zrotation Yrotation Xrotation
							JOINT LeftHand
							{
								OFFSET 0.249234 0.008986 -0.001171
								CHANNELS 3 Zrotation Yrotation Xrotation
								End Site
								{
									OFFSET 0.000000 0.000000 0.000000
								}
							}
						}
					}
				}
				JOINT RightShoulder
				{
					OFFSET -0.081759 0.118833 -0.038615
					CHANNELS 3 Zrotation Yrotation Xrotation
					JOINT RightArm
					{
						OFFSET -0.096012 0.032551 -0.009143
						CHANNELS 3 Zrotation Yrotation Xrotation
						JOINT RightForeArm
						{
							OFFSET -0.253742 -0.013329 -0.021401
							CHANNELS 3 Zrotation Yrotation Xrotation
							JOINT RightHand
							{
								OFFSET -0.255298 0.007772 -0.005559
								CHANNELS 3 Zrotation Yrotation Xrotation
								End Site
								{
									OFFSET 0.000000 0.000000 0.000000
								}
							}
						}
					}
				}
			}
		}
	}
}
MOTION
Frames: 6
Frame Time: 0.050000
-0.038586 0.928827 -0.014976 2.921539 -5.176098 -6.169487 0.791786 0.482199 5.090886 -4.246135 0.548172 2.576603 3.109178 7.157471 1.991136 0.000000 0.000000 0.000000 -11.659237 0.291206 -1.198169 2.949030 -0.029689 11.394748 -2.811341 -8.680462 4.420635 0.000000 0.000000 0.000000 6.375244 -1.246483 15.158855 -7.975913 2.508296 -25.179841 -4.473021 8.172851 25.025288 13.298187 -3.132933 -37.560059 0.000000 0.000000 0.000000 -20.161518 -14.985995 5.603011 -42.597409 -6.131317 -4.476585 -18.510167 -24.474434 4.826780 0.000000 0.000000 0.000000 32.228127 0.576744 0.414936 50.015888 11.623822 -3.079957 15.106717 23.098733 4.080261 0.000000 0.000000 0.000000 
-0.038185 0.928636 -0.015096 2.891387 -5.126056 -6.055292 0.828072 0.447464 4.743451 -4.372134 0.570212 2.984284 3.090187 7.060994 1.755492 0.000000 0.000000 0.000000 -11.875220 0.297352 -1.164356 3.174798 -0.084975 11.032768 -2.824607 -8.709479 4.427029 0.000000 0.000000 0.000000 6.347496 -1.239800 15.068306 -7.892921 2.480186 -25.354470 -4.274641 8.097993 25.059064 13.318759 -3.085941 -37.925301 0.000000 0.000000 0.000000 -20.217450 -14.998086 5.629806 -42.422910 -6.428550 -4.366447 -18.756002 -25.026928 4.999120 0.000000 0.000000 0.000000 32.092501 0.707599 0.491051 49.931274 11.861079 -2.977330 15.190366 23.152598 4.105694 0.000000 0.000000 0.000000 
-0.037773 0.928547 -0.015380 2.819182 -5.178235 -5.938818 0.954211 0.417580 4.461922 -4.434922 0.583159 3.263547 3.092966 7.057179 1.723600 0.000000 0.000000 0.000000 -11.987169 0.304556 -1.138066 3.298322 -0.117557 10.653824 -2.787477 -8.680851 4.571540 0.000000 0.000000 0.000000 6.322898 -1.235609 15.030316 -7.777526 2.447854 -25.407291 -4.171334 8.183308 24.902474 13.423227 -3.110940 -37.950826 0.000000 0.000000 0.000000 -20.131146 -14.842521 5.520954 -42.340559 -6.623529 -4.277649 -18.552373 -25.400602 5.027485 0.000000 0.000000 0.000000 32.026761 0.609069 0.436817 49.813481 11.973096 -2.916840 15.281377 23.287244 4.152016 0.000000 0.000000 0.000000 
-0.037532 0.928441 -0.015805 2.802742 -5.135228 -5.736863 0.933574 0.372551 3.980058 -4.581929 0.610905 3.726937 3.151605 7.098498 1.405205 0.000000 0.000000 0.000000 -12.227012 0.311791 -1.289113 3.599977 -0.178889 10.504941 -2.803368 -8.700680 4.535734 0.000000 0.000000 0.000000 6.221546 -1.229604 15.036287 -7.611692 2.402274 -25.498259 -4.115361 8.066914 24.747814 13.635987 -3.174088 -38.157123 0.000000 0.000000 0.000000 -20.101954 -14.764875 5.498141 -42.197234 -6.889073 -4.168557 -18.587081 -25.721751 5.104978 0.000000 0.000000 0.000000 31.901765 0.542216 0.347101 49.848431 12.063834 -2.845967 15.568892 23.579393 4.271688 0.000000 0.000000 0.000000 
-0.037457 0.928455 -0.016376 2.736596 -5.176599 -5.617542 1.000060 0.352495 3.779959 -4.568767 0.610040 3.804509 3.251464 7.312362 1.447926 0.000000 0.000000 0.000000 -12.267085 0.314763 -1.505259 3.612118 -0.183246 10.377633 -2.821265 -8.816291 4.753948 0.000000 0.000000 0.000000 6.033648 -1.217460 15.134154 -7.425508 2.348406 -25.685890 -4.125017 8.125534 24.680808 13.730509 -3.196644 -38.222008 0.000000 0.000000 0.000000 -19.932863 -14.641957 5.417065 -42.095372 -6.899147 -4.152086 -18.503536 -26.023035 5.144896 0.000000 0.000000 0.000000 31.890046 0.376984 0.245310 49.917408 11.966275 -2.885244 16.008891 24.003635 4.463610 0.000000 0.000000 0.000000 
-0.037498 0.928323 -0.017046 2.704323 -5.151444 -5.558638 1.031019 0.324189 3.480165 -4.653964 0.627229 4.101419 3.314047 7.400371 1.282172 0.000000 0.000000 0.000000 -12.266595 0.313345 -1.602114 3.687369 -0.200927 10.235999 -2.906624 -9.011469 4.791389 0.000000 0.000000 0.000000 5.868800 -1.215317 15.338921 -7.327201 2.322292 -25.752207 -4.214622 7.959995 24.457819 13.791955 -3.249221 -38.122994 0.000000 0.000000 0.000000 -19.795679 -14.366567 5.294775 -41.894060 -6.851676 -4.142068 -18.369458 -26.095077 5.129992 0.000000 0.000000 0.000000 31.786400 0.316838 0.136752 50.025359 11.860482 -2.884091 16.425891 24.328654 4.620902 0.000000 0.000000 0.000000 
